<svg width="395" height="327" viewBox="0 0 395 327" fill="none" xmlns="http://www.w3.org/2000/svg">
<path d="M6.69706 0.00438454C6.94767 0.0257402 7.18393 0.124897 7.3752 0.285478C16.0761 7.52921 25.7182 14.7306 34.7555 21.7882L36.5545 23.1981C64.5942 45.2846 79.32 56.8325 80.7827 57.8833L81.6339 58.5043C84.0325 60.2887 89.316 64.4086 97.4613 70.8452C108.379 79.4763 124.275 91.7392 145.148 107.636C142.043 104.605 139.097 101.749 136.222 98.8658C121.413 84.045 106.461 68.7745 91.365 53.0546C91.0003 52.6797 90.7897 52.1831 90.7695 51.6623V51.6597C90.7291 50.5282 90.9414 49.4154 91.1753 48.4043C91.4187 47.3522 91.6706 46.458 91.7937 45.5837C92.5694 39.9318 93.555 34.1076 94.7505 28.1111L94.7584 28.0329C94.7618 27.9783 94.7638 27.9051 94.7645 27.8116C94.7659 27.6238 94.7598 27.3742 94.7452 27.0588L94.7443 27.0377V27.0175C94.7443 26.8953 94.755 26.7731 94.7751 26.6529L98.3186 5.63065L98.3203 5.62098C98.3694 5.34775 98.5059 5.09803 98.7086 4.90859L98.7868 4.84095C98.9761 4.6906 99.2048 4.59605 99.4465 4.56952L99.5501 4.56249C99.7914 4.55564 100.031 4.6167 100.24 4.73993C100.449 4.86339 100.619 5.04343 100.73 5.2582L100.774 5.35219L100.777 5.36185L100.782 5.37239C101.574 7.40491 103.182 10.6283 105.633 15.0692C107.77 18.9401 109.459 22.0783 110.7 24.4815L113.154 29.2074C119.506 41.3983 130.23 61.728 145.326 90.1994C147.52 94.3393 149.054 97.7346 151.032 101.078L151.434 101.746L151.435 101.747C153.579 105.264 156.292 109.98 159.575 115.891L159.576 115.894C160.115 116.871 160.289 118.007 160.066 119.099L160.065 119.102C159.232 123.114 158.431 126.95 157.664 130.608C157.305 132.317 157.138 133.801 157.146 135.068L179.385 124.404L179.39 124.402C179.662 124.274 179.964 124.229 180.26 124.271L180.279 124.274L202.578 127.935H202.583C202.872 127.984 203.148 128.093 203.394 128.253C203.578 128.373 203.742 128.521 203.881 128.69L204.011 128.866L204.017 128.875L206.398 132.579L206.584 132.842C206.781 133.099 207.009 133.333 207.263 133.539L207.264 133.54C208.844 134.826 210.032 135.792 210.827 136.437C211.225 136.76 211.524 137.003 211.725 137.165C211.825 137.246 211.901 137.307 211.951 137.347C211.96 137.354 211.968 137.361 211.975 137.367C212.66 137.768 213.043 138.332 213.223 138.968C213.392 139.567 213.373 140.209 213.35 140.729C213.299 141.893 213.247 142.687 213.761 143.361C221.566 153.589 226.246 159.679 227.81 161.643H227.808C227.91 161.771 227.985 161.918 228.023 162.077L228.05 162.243L228.052 162.411C228.041 162.578 227.993 162.741 227.911 162.888C227.8 163.084 227.632 163.242 227.43 163.342C227.235 163.437 227.016 163.471 226.8 163.444V163.447C220.409 162.675 213.838 161.438 207.088 159.738L207.082 159.737C207.009 159.718 206.93 159.726 206.86 159.762C202.315 162.202 198.448 164.377 195.257 166.285L195.256 166.284C194.525 166.724 193.826 167.716 193.293 169.533L193.294 169.534C192.707 171.548 190.491 179.184 186.647 192.443L186.636 192.474C186.569 192.679 186.444 192.854 186.282 192.984L186.26 193.001L160.282 212.493C159.533 213.056 158.663 213.438 157.741 213.612H157.739C152.324 214.623 147.201 215.691 142.369 216.815C141.138 217.1 135.964 218.182 126.876 220.057L126.877 220.058C117.891 221.914 109.332 223.925 101.201 226.091L101.194 226.093L101.187 226.094C101.172 226.098 101.158 226.105 101.147 226.113C101.136 226.122 101.128 226.132 101.122 226.141L101.119 226.148L79.1981 266.194C78.7125 267.08 77.9912 267.817 77.1136 268.323H77.1118L59.4636 278.452L59.4627 278.453C59.2419 278.579 59.008 278.679 58.7661 278.752L58.767 278.753C58.1814 278.94 57.5788 279.215 56.9592 279.586L56.9583 279.585C56.7067 279.738 56.4123 279.805 56.1194 279.774C55.8187 279.742 55.5368 279.609 55.321 279.396C55.1053 279.184 54.9685 278.904 54.9318 278.604C54.8957 278.308 54.9588 278.008 55.1119 277.753L56.0948 276.083C58.3135 272.291 60.0082 269.238 61.1826 266.92C62.7502 263.83 64.2305 260.983 65.6239 258.38L66.9881 255.859C73.5961 243.749 79.5728 232.564 84.9227 222.306C84.3398 223.267 83.7609 224.23 83.1852 225.196C82.3207 226.646 81.2644 228.218 80.1696 229.857C79.0694 231.504 77.9227 233.23 76.8518 235.02L76.851 235.02C73.4207 240.767 70.1808 246.022 67.1295 250.785L65.8338 252.795C57.8949 265.033 51.3031 276.526 44.4672 287.336L44.4664 287.335C44.299 287.611 44.06 287.833 43.7768 287.982L1.84293 310.237L1.83502 310.241L1.82624 310.245C1.56868 310.375 1.27438 310.412 0.99262 310.351C0.710566 310.29 0.45807 310.134 0.277588 309.909C0.0970752 309.684 -0.00105375 309.404 8.53495e-06 309.116C0.00109551 308.828 0.101462 308.548 0.283737 308.324L0.2934 308.312L0.304819 308.3C21.282 284.391 38.0245 264.439 64.1455 233.119C66.3709 230.448 72.1967 223.656 81.6146 212.752C87.1474 206.345 92.8432 199.478 98.7016 192.152C100.027 190.495 102.002 188.519 103.598 186.826L103.6 186.823C103.893 186.514 104.24 186.26 104.623 186.076L140.45 168.632C139.739 168.76 139.008 168.905 138.258 169.072C132.317 170.382 126.934 171.711 121.66 173.023C116.388 174.334 111.221 175.63 105.727 176.869C100.522 178.045 95.3002 179.433 90.0632 181.033L90.0641 181.034C89.6076 181.176 89.1224 181.199 88.6542 181.102C88.1861 181.005 87.7501 180.791 87.3867 180.48L59.9107 157.277C59.6741 157.079 59.5051 156.811 59.4276 156.512C59.3492 156.209 59.3682 155.889 59.482 155.598L59.5286 155.491C59.6473 155.247 59.8318 155.039 60.0618 154.891L60.1619 154.832C60.3996 154.704 60.6685 154.643 60.9393 154.657C79.8524 155.575 98.2949 157.404 116.678 158.787C121.684 159.165 127.963 159.769 135.513 160.597C133.894 160.236 132.221 159.882 130.495 159.539L128.433 159.138C120.412 157.608 112.229 155.994 103.884 154.297C98.0639 153.118 91.3777 151.918 83.8247 150.696C77.8679 149.733 71.1678 148.434 63.7256 146.8C58.4815 145.651 53.8467 144.721 49.8203 144.01C49.4752 143.949 49.1487 143.805 48.8716 143.59C48.5944 143.374 48.3736 143.094 48.2295 142.773C43.3246 132.052 39.2725 123.073 36.0748 115.838C35.2504 113.98 34.4068 112.286 33.5828 110.571C32.7626 108.864 31.9686 107.149 31.2708 105.294C29.3148 100.12 27.1096 96.191 24.1688 90.4269L24.1626 90.4137L24.1556 90.4005C24.0516 90.1791 24.0159 89.9317 24.0519 89.6899L24.0924 89.5116C24.1453 89.3376 24.2357 89.1767 24.3585 89.0407L24.4903 88.9142C24.6308 88.7985 24.7963 88.7153 24.9743 88.67L25.1535 88.6375C25.3344 88.6191 25.518 88.6409 25.6911 88.7017L25.7025 88.7061L25.713 88.7096L137.932 131.474C127.906 126.386 118.79 121.956 109.815 117.372C88.0678 106.28 66.4552 95.3573 44.9776 84.6065C39.4827 81.856 30.8801 77.4123 19.1741 71.2774L19.1723 71.2765C18.8521 71.1078 18.5733 70.8697 18.3572 70.579C18.1411 70.2884 17.9928 69.953 17.925 69.597L17.9241 69.5917L5.3847 1.45465L5.38383 1.44587L5.38207 1.43796C5.34167 1.19245 5.37659 0.940619 5.48045 0.715902L5.52262 0.633331C5.62778 0.444338 5.78112 0.283716 5.97061 0.171284C6.18751 0.0426145 6.44123 -0.0174059 6.69706 0.00438454ZM10.9056 301.61C19.5824 296.964 26.2734 293.373 30.9765 290.832C36.1191 288.053 38.8296 286.561 39.209 286.311L41.2601 284.957C41.7158 284.654 41.9794 284.477 42.0569 284.422C42.4849 284.107 42.8353 283.699 43.0793 283.23C44.1037 281.223 44.8678 279.848 45.3527 279.178C47.3087 276.444 52.3686 268.361 60.559 254.879C64.7151 248.038 70.3155 239.188 77.3578 228.33L78.6473 226.327C82.8044 219.825 86.7237 213.299 90.7273 207.104L10.9056 301.61ZM93.5198 214.14C91.1721 217.844 89.0517 221.439 86.8017 225.838C80.8287 237.514 74.6038 249.017 68.1265 260.344L68.1256 260.343C65.5837 264.796 63.7628 268.787 61.2371 273.589C62.6025 272.754 64.2458 271.831 66.1624 270.822L66.1633 270.821C68.5059 269.594 71.5119 267.852 75.1855 265.59L75.1925 265.586C75.3763 265.475 75.5171 265.301 75.5887 265.092L75.5913 265.086L93.5198 214.14ZM85.0009 248.404C86.4594 245.726 88.1091 242.77 89.9508 239.537L91.4608 236.877C94.8347 230.914 97.1606 226.652 98.446 224.082C98.5633 223.847 98.7229 223.327 98.8992 222.431C99.0702 221.561 99.2436 220.412 99.4192 218.978C100.412 210.884 101.133 204.981 101.586 201.266L85.0009 248.404ZM106.15 221.101L157.102 210.185C157.104 210.185 157.107 210.183 157.108 210.181C157.11 210.18 157.11 210.177 157.11 210.175V210.173L153.369 168.375L106.15 221.101ZM106.21 188.959L102.737 219.667C103.188 219.312 103.605 218.924 103.985 218.497C124.751 195.035 139.813 178.216 149.167 168.044L106.21 188.959ZM161.821 207.121L183.063 191.185L174.156 158.325L161.821 207.121ZM162.175 160.954C160.604 162.324 159.051 163.326 157.513 163.923C157.183 164.053 156.903 164.285 156.716 164.586C156.529 164.888 156.443 165.241 156.473 165.595L159.732 201.977L171.449 155.597L162.175 160.954ZM185.09 185.863L190.812 166.624L190.813 166.622C190.844 166.519 190.842 166.408 190.808 166.305C190.774 166.201 190.708 166.109 190.619 166.042L176.926 155.8L185.09 185.863ZM73.2099 158.639C70.434 158.444 68.1966 158.383 66.4856 158.451L88.9213 177.405L143.93 164.487C129.748 163.168 118.879 162.244 111.317 161.717L108.037 161.5C102.181 161.139 96.538 160.639 90.831 160.121C85.121 159.604 79.3469 159.07 73.2099 158.639ZM178.682 153.027L191.521 162.637L195.264 150.028C195.266 150.022 195.266 150.016 195.265 150.01C195.264 150.004 195.261 149.999 195.257 149.994C195.253 149.99 195.248 149.986 195.242 149.984C195.236 149.982 195.23 149.982 195.224 149.983L195.223 149.982L178.682 153.027ZM195.331 162.172L203.448 157.492L197.915 151.952L195.331 162.172ZM156.54 160.733L160.93 157.852L161.029 157.788L161.078 157.772C164.428 156.034 166.973 154.4 168.744 152.877L168.748 152.874C168.971 152.685 169.332 152.495 169.713 152.313C169.97 152.19 170.279 152.052 170.637 151.899L156.54 141.35V160.733ZM144.392 138.302H144.389C129.006 138.944 111.414 139.957 91.6136 141.342C81.3293 142.058 72.0013 142.411 61.9495 143.138C66.3892 143.901 71.0686 144.86 75.7564 145.813C81.6056 147.002 87.4721 148.179 92.9646 148.962C99.0975 149.828 105.603 151.374 111.449 152.449C125.887 155.109 138.737 158.013 152.306 160.249C150.197 153.809 148.098 146.835 146.012 139.327C145.892 138.899 145.707 138.665 145.502 138.528C145.286 138.384 144.943 138.278 144.392 138.302ZM209.668 156.945L218.631 158.418C216.471 156.586 214.101 154.879 211.519 153.299L209.668 156.945ZM201.495 150.483C202.053 151.03 202.599 151.604 203.133 152.207L203.504 152.633C203.904 153.099 204.285 153.571 204.65 154.047C204.635 153.023 204.574 152.016 204.472 151.024C203.5 150.802 202.508 150.621 201.495 150.483ZM212.395 149.273L212.4 149.324C212.406 149.339 212.413 149.351 212.422 149.36L214.537 151.529L214.661 151.637L216.925 153.236L212.601 147.475L212.395 149.273ZM148.562 137.261C148.635 137.433 148.701 137.608 148.756 137.787L153.371 152.77C153.422 147.916 153.23 143.301 152.795 138.922C151.205 138.526 149.823 137.926 148.562 137.261ZM208.097 151.365C208.048 151.645 208.005 151.919 207.97 152.183C208.039 151.926 208.106 151.657 208.169 151.38L208.097 151.365ZM175.1 142.545L175.099 142.544C174.673 142.679 174.222 142.711 173.782 142.635L160.738 140.494L173.397 149.968L185.957 139.201L175.1 142.545ZM178.806 149.759L194.765 146.819L191.73 138.684L178.806 149.759ZM198.172 146.889L204.184 147.574L200.502 139.484L200.46 139.407C200.414 139.333 200.354 139.267 200.283 139.213C200.191 139.143 200.083 139.094 199.967 139.074L195.545 138.353L198.172 146.889ZM205.195 141.278C205.413 141.789 205.658 142.347 205.872 142.928C206.086 143.51 206.274 144.132 206.393 144.804L208.743 141.658C207.537 141.58 206.307 141.338 205.053 140.938C205.1 141.049 205.146 141.163 205.195 141.278ZM50.8401 140.368V140.369C50.8555 140.403 50.8812 140.431 50.9131 140.45C50.9449 140.469 50.9818 140.477 51.0185 140.474C54.6724 140.136 67.8571 139.275 90.5428 137.891C101.763 137.208 113.01 136.536 124.285 135.876L126.612 135.744C130.983 135.509 134.981 135.362 138.605 135.301L29.5948 93.7552L50.8401 140.368ZM167.483 134.132C167.289 134.107 167.093 134.124 166.907 134.179L166.726 134.247L160.472 137.094L174.066 138.966C174.115 138.97 174.162 138.967 174.205 138.955L184.198 136.247C184.005 136.211 183.807 136.18 183.605 136.155C179.489 135.657 174.115 134.983 167.483 134.132ZM202.351 136.86C202.356 136.868 202.362 136.877 202.368 136.886C202.371 136.891 202.374 136.895 202.377 136.9L202.423 136.873L202.379 136.905C202.388 136.918 202.397 136.932 202.406 136.945C202.418 136.963 202.43 136.981 202.442 136.999C202.448 137.001 202.453 136.999 202.456 136.993C202.456 136.991 202.455 136.99 202.456 136.988L202.442 136.999L202.456 136.961C202.454 136.948 202.45 136.933 202.444 136.918C202.439 136.902 202.431 136.887 202.423 136.873C202.409 136.855 202.386 136.837 202.355 136.819C202.354 136.833 202.353 136.846 202.351 136.86ZM192.301 134.467L192.306 134.471C192.371 134.53 192.451 134.568 192.535 134.581L192.539 134.582L200.561 135.898V131.168L185.942 128.772L192.301 134.467ZM21.2217 68.1476C21.2495 68.2965 21.3118 68.4376 21.4035 68.5596C21.4952 68.6816 21.6142 68.7818 21.7514 68.8512L151.425 134.66L145.24 111.842L145.215 111.788C145.203 111.771 145.187 111.755 145.168 111.74C134.583 103.932 123.097 95.1305 110.711 85.3373L105.347 81.0788C100.658 77.3456 95.125 73.1707 89.6837 69.0603C84.2482 64.9541 78.9019 60.9109 74.6075 57.4555L74.5899 57.4414C74.5836 57.4366 74.5099 57.3775 74.3396 57.2429C74.1673 57.1068 73.9139 56.9064 73.5788 56.6421C72.9082 56.1131 71.9117 55.3279 70.5896 54.2862L58.7477 44.9583C45.3046 34.3753 31.7266 23.7473 18.0137 13.0744C14.195 10.1003 11.4887 7.96908 9.9068 6.69177L21.2217 68.1476ZM172.778 131.098L186.514 133.355C182.647 130.466 180.355 128.72 179.711 128.171L172.778 131.098ZM148.456 110.88C148.504 111.005 148.549 111.132 148.584 111.262L154.145 131.746L156.174 119.421C156.207 119.211 156.191 118.996 156.127 118.793C156.063 118.59 155.953 118.404 155.806 118.251C153.234 115.613 150.795 113.183 148.456 110.88ZM94.3455 50.7119C94.3316 50.7967 94.3377 50.8841 94.3631 50.9675C94.3885 51.051 94.4327 51.1285 94.4931 51.1933L94.494 51.1941C106.15 63.6888 117.862 75.791 129.631 87.5C136.888 94.7188 144.359 102.178 152.044 109.874L100.562 12.8908L94.3455 50.7119Z" fill="white"/>
<path d="M394.472 222.491L381.879 222.447C381.596 222.446 381.366 222.675 381.365 222.958L381.321 235.551C381.32 235.834 381.549 236.065 381.832 236.066L394.425 236.11C394.708 236.111 394.938 235.882 394.939 235.599L394.983 223.006C394.984 222.723 394.755 222.492 394.472 222.491Z" fill="white"/>
<path d="M394.37 237.682L382.065 237.66C381.717 237.659 381.435 237.941 381.434 238.289L381.413 250.594C381.412 250.942 381.694 251.224 382.042 251.225L394.347 251.246C394.694 251.247 394.977 250.965 394.977 250.617L394.999 238.312C394.999 237.965 394.718 237.682 394.37 237.682Z" fill="white"/>
<path d="M366.297 252.662L353.884 252.705C353.586 252.706 353.345 252.949 353.346 253.247L353.391 266.092C353.392 266.39 353.634 266.63 353.932 266.629L366.345 266.586C366.643 266.585 366.884 266.342 366.883 266.044L366.838 253.2C366.837 252.902 366.595 252.661 366.297 252.662Z" fill="white"/>
<path d="M130.272 252.786L117.949 252.743C117.68 252.742 117.462 252.959 117.461 253.227L117.416 266.018C117.416 266.286 117.632 266.504 117.9 266.505L130.224 266.548C130.492 266.549 130.71 266.332 130.711 266.064L130.756 253.273C130.757 253.005 130.54 252.787 130.272 252.786Z" fill="white"/>
<path d="M145.017 252.868L132.82 252.805C132.413 252.802 132.081 253.131 132.079 253.538L132.015 265.735C132.013 266.143 132.341 266.475 132.748 266.477L144.945 266.541C145.353 266.543 145.685 266.214 145.687 265.807L145.751 253.61C145.753 253.202 145.424 252.871 145.017 252.868Z" fill="white"/>
<path d="M159.559 252.848L147.524 252.806C147.206 252.805 146.948 253.062 146.946 253.38L146.902 266.045C146.901 266.363 147.158 266.622 147.476 266.623L159.511 266.665C159.829 266.666 160.088 266.409 160.089 266.091L160.133 253.426C160.134 253.108 159.877 252.85 159.559 252.848Z" fill="white"/>
<path d="M196.489 252.811L184.166 252.79C183.838 252.789 183.572 253.054 183.572 253.382L183.55 265.705C183.55 266.033 183.815 266.3 184.143 266.3L196.466 266.322C196.794 266.322 197.06 266.057 197.061 265.729L197.082 253.406C197.083 253.078 196.817 252.812 196.489 252.811Z" fill="white"/>
<path d="M207.752 252.727L198.99 252.712C198.608 252.711 198.297 253.021 198.297 253.403L198.275 265.852C198.274 266.235 198.584 266.545 198.966 266.546L207.727 266.561C208.11 266.562 208.421 266.253 208.421 265.87L208.443 253.421C208.444 253.038 208.134 252.728 207.752 252.727Z" fill="white"/>
<path d="M219.31 252.75L210.496 252.689C210.163 252.687 209.891 252.954 209.889 253.287L209.8 265.988C209.798 266.321 210.066 266.592 210.398 266.595L219.213 266.656C219.546 266.659 219.818 266.391 219.82 266.058L219.909 253.357C219.911 253.024 219.643 252.753 219.31 252.75Z" fill="white"/>
<path d="M243.759 252.764L234.278 252.747C234.059 252.747 233.882 252.924 233.881 253.142L233.858 266.275C233.858 266.494 234.035 266.671 234.254 266.671L243.734 266.688C243.953 266.688 244.13 266.511 244.131 266.293L244.154 253.16C244.154 252.942 243.977 252.764 243.759 252.764Z" fill="white"/>
<path d="M255.86 252.735L246.182 252.651C245.844 252.648 245.568 252.919 245.565 253.257L245.454 265.975C245.451 266.313 245.723 266.589 246.06 266.592L255.739 266.677C256.076 266.68 256.353 266.408 256.356 266.07L256.467 253.352C256.47 253.014 256.198 252.738 255.86 252.735Z" fill="white"/>
<path d="M293.075 252.8H280.788C280.45 252.8 280.176 253.074 280.176 253.412V265.717C280.176 266.055 280.45 266.329 280.788 266.329H293.075C293.413 266.329 293.687 266.055 293.687 265.717V253.412C293.687 253.074 293.413 252.8 293.075 252.8Z" fill="white"/>
<path d="M315.352 252.718L302.831 252.739C302.583 252.74 302.382 252.942 302.382 253.19L302.405 266.215C302.406 266.463 302.607 266.664 302.856 266.664L315.377 266.642C315.625 266.641 315.826 266.44 315.826 266.191L315.803 253.166C315.802 252.918 315.601 252.717 315.352 252.718Z" fill="white"/>
<path d="M351.566 252.717L339.027 252.739C338.799 252.74 338.614 252.925 338.614 253.154L338.637 266.233C338.637 266.461 338.823 266.646 339.051 266.646L351.59 266.624C351.819 266.623 352.004 266.438 352.003 266.209L351.981 253.131C351.98 252.902 351.795 252.717 351.566 252.717Z" fill="white"/>
<path d="M394.448 252.815L381.981 252.75C381.708 252.748 381.485 252.969 381.483 253.242L381.418 265.709C381.417 265.982 381.637 266.205 381.91 266.206L394.377 266.271C394.65 266.273 394.873 266.053 394.874 265.779L394.94 253.312C394.941 253.039 394.721 252.817 394.448 252.815Z" fill="white"/>
<path d="M116.335 267.473L104.156 267.452C103.833 267.451 103.571 267.712 103.571 268.035L103.548 280.7C103.548 281.023 103.809 281.285 104.132 281.286L116.311 281.307C116.634 281.308 116.896 281.046 116.897 280.723L116.919 268.059C116.92 267.736 116.658 267.473 116.335 267.473Z" fill="white"/>
<path d="M173.655 267.394L161.278 267.351C160.955 267.35 160.692 267.61 160.691 267.933L160.646 280.832C160.645 281.155 160.906 281.418 161.229 281.419L173.606 281.462C173.929 281.463 174.191 281.202 174.193 280.879L174.238 267.981C174.239 267.658 173.978 267.395 173.655 267.394Z" fill="white"/>
<path d="M233.312 267.588H220.809C220.491 267.588 220.233 267.846 220.233 268.164V280.667C220.233 280.985 220.491 281.243 220.809 281.243H233.312C233.63 281.243 233.888 280.985 233.888 280.667V268.164C233.888 267.846 233.63 267.588 233.312 267.588Z" fill="white"/>
<path d="M269.763 267.626L257.278 267.604C256.98 267.604 256.738 267.845 256.737 268.143L256.715 280.628C256.715 280.926 256.956 281.168 257.254 281.169L269.739 281.19C270.037 281.191 270.279 280.95 270.28 280.652L270.301 268.167C270.302 267.869 270.061 267.627 269.763 267.626Z" fill="white"/>
<path d="M337.432 267.584L325.001 267.628C324.683 267.629 324.427 267.888 324.428 268.206L324.471 280.637C324.472 280.954 324.731 281.211 325.049 281.21L337.48 281.167C337.798 281.166 338.055 280.907 338.054 280.589L338.01 268.158C338.009 267.84 337.75 267.583 337.432 267.584Z" fill="white"/>
<path d="M292.994 267.786H280.851C280.508 267.786 280.23 268.064 280.23 268.407V280.55C280.23 280.893 280.508 281.171 280.851 281.171H292.994C293.337 281.171 293.615 280.893 293.615 280.55V268.407C293.615 268.064 293.337 267.786 292.994 267.786Z" fill="white"/>
<path d="M379.898 267.518L367.611 267.497C367.317 267.496 367.079 267.733 367.079 268.026L367.057 280.889C367.056 281.182 367.293 281.42 367.586 281.421L379.873 281.442C380.167 281.443 380.405 281.206 380.405 280.912L380.427 268.05C380.428 267.756 380.191 267.518 379.898 267.518Z" fill="white"/>
<path d="M394.452 267.594L382.164 267.637C381.956 267.637 381.787 267.807 381.788 268.016L381.833 280.932C381.834 281.141 382.004 281.31 382.212 281.309L394.499 281.266C394.708 281.265 394.876 281.096 394.876 280.887L394.831 267.97C394.83 267.762 394.66 267.593 394.452 267.594Z" fill="white"/>
<path d="M196.654 267.799L184.277 267.755C183.964 267.754 183.71 268.007 183.708 268.32L183.665 280.697C183.664 281.01 183.917 281.265 184.23 281.266L196.607 281.309C196.92 281.31 197.175 281.057 197.176 280.744L197.219 268.367C197.22 268.054 196.967 267.8 196.654 267.799Z" fill="white"/>
<path d="M116.267 282.761L104.375 282.782C103.958 282.783 103.62 283.122 103.621 283.539L103.642 295.43C103.643 295.848 103.981 296.185 104.399 296.185L116.29 296.164C116.707 296.163 117.045 295.824 117.044 295.407L117.024 283.516C117.023 283.098 116.684 282.761 116.267 282.761Z" fill="white"/>
<path d="M196.468 282.758L184.433 282.695C184.011 282.693 183.667 283.034 183.664 283.456L183.601 295.491C183.599 295.913 183.94 296.257 184.362 296.26L196.397 296.323C196.819 296.325 197.163 295.984 197.166 295.562L197.229 283.527C197.231 283.105 196.89 282.761 196.468 282.758Z" fill="white"/>
<path d="M233.189 282.764L221.01 282.743C220.657 282.743 220.371 283.028 220.37 283.381L220.349 295.56C220.348 295.913 220.634 296.199 220.986 296.2L233.166 296.221C233.518 296.221 233.805 295.936 233.805 295.583L233.827 283.404C233.827 283.051 233.542 282.765 233.189 282.764Z" fill="white"/>
<path d="M269.589 282.745H257.428C257.065 282.745 256.771 283.039 256.771 283.401V295.563C256.771 295.925 257.065 296.219 257.428 296.219H269.589C269.952 296.219 270.246 295.925 270.246 295.563V283.401C270.246 283.039 269.952 282.745 269.589 282.745Z" fill="white"/>
<path d="M292.916 282.737L280.88 282.716C280.478 282.716 280.151 283.041 280.151 283.444L280.13 295.479C280.129 295.881 280.455 296.208 280.857 296.209L292.892 296.23C293.295 296.23 293.621 295.905 293.622 295.502L293.643 283.467C293.644 283.065 293.318 282.738 292.916 282.737Z" fill="white"/>
<path d="M337.387 282.774L324.992 282.752C324.689 282.751 324.443 282.997 324.442 283.3L324.421 295.695C324.42 295.998 324.665 296.244 324.968 296.244L337.363 296.266C337.666 296.267 337.913 296.021 337.913 295.718L337.935 283.323C337.935 283.02 337.69 282.774 337.387 282.774Z" fill="white"/>
<path d="M394.134 282.597L382.206 282.659C381.839 282.661 381.542 282.961 381.544 283.328L381.609 295.723C381.611 296.091 381.911 296.387 382.278 296.385L394.205 296.323C394.573 296.321 394.87 296.021 394.868 295.654L394.803 283.259C394.801 282.891 394.501 282.595 394.134 282.597Z" fill="white"/>
<path d="M116.531 297.878L104.01 297.943C103.742 297.945 103.525 298.163 103.527 298.431L103.592 310.952C103.594 311.221 103.812 311.437 104.081 311.435L116.601 311.37C116.87 311.368 117.086 311.15 117.085 310.882L117.019 298.361C117.018 298.093 116.799 297.876 116.531 297.878Z" fill="white"/>
<path d="M173.776 297.837L161.202 297.75C160.934 297.748 160.715 297.964 160.713 298.232L160.625 310.807C160.623 311.075 160.839 311.294 161.107 311.296L173.682 311.384C173.95 311.385 174.169 311.169 174.171 310.901L174.259 298.327C174.261 298.058 174.045 297.839 173.776 297.837Z" fill="white"/>
<path d="M196.379 297.654L184.218 297.717C183.811 297.719 183.482 298.051 183.484 298.459L183.548 310.62C183.55 311.027 183.882 311.356 184.289 311.354L196.45 311.29C196.858 311.288 197.186 310.956 197.184 310.548L197.12 298.387C197.118 297.98 196.786 297.652 196.379 297.654Z" fill="white"/>
<path d="M233.082 297.709L220.849 297.752C220.496 297.753 220.211 298.04 220.212 298.393L220.255 310.626C220.256 310.978 220.543 311.263 220.896 311.262L233.129 311.219C233.482 311.218 233.766 310.931 233.765 310.579L233.723 298.345C233.721 297.993 233.434 297.708 233.082 297.709Z" fill="white"/>
<path d="M269.568 297.738L257.479 297.759C257.091 297.76 256.778 298.074 256.779 298.462L256.8 310.551C256.8 310.938 257.115 311.252 257.503 311.251L269.592 311.23C269.979 311.23 270.293 310.915 270.292 310.527L270.271 298.438C270.27 298.051 269.956 297.737 269.568 297.738Z" fill="white"/>
<path d="M292.886 297.757H280.761C280.398 297.757 280.104 298.051 280.104 298.414V310.539C280.104 310.902 280.398 311.196 280.761 311.196H292.886C293.249 311.196 293.543 310.902 293.543 310.539V298.414C293.543 298.051 293.249 297.757 292.886 297.757Z" fill="white"/>
<path d="M337.378 297.79L324.983 297.833C324.661 297.834 324.4 298.097 324.401 298.42L324.444 310.815C324.445 311.138 324.708 311.399 325.031 311.397L337.426 311.354C337.749 311.353 338.01 311.09 338.008 310.767L337.965 298.372C337.964 298.049 337.701 297.789 337.378 297.79Z" fill="white"/>
<path d="M380.03 297.859L367.437 297.925C367.159 297.927 366.934 298.153 366.936 298.432L367.002 311.024C367.003 311.303 367.23 311.527 367.508 311.526L380.101 311.46C380.379 311.458 380.604 311.231 380.602 310.953L380.536 298.36C380.535 298.082 380.308 297.858 380.03 297.859Z" fill="white"/>
<path d="M394.337 297.671L382.23 297.628C381.917 297.627 381.663 297.88 381.662 298.193L381.618 310.804C381.617 311.117 381.869 311.371 382.182 311.373L394.29 311.415C394.602 311.416 394.857 311.163 394.858 310.85L394.902 298.239C394.903 297.926 394.65 297.672 394.337 297.671Z" fill="white"/>
<path d="M130.196 312.586L117.711 312.63C117.498 312.631 117.325 312.804 117.326 313.018L117.372 326.205C117.373 326.418 117.546 326.591 117.76 326.59L130.245 326.546C130.459 326.546 130.631 326.372 130.63 326.158L130.584 312.972C130.584 312.758 130.41 312.586 130.196 312.586Z" fill="white"/>
<path d="M145.062 312.734H132.649C132.326 312.734 132.065 312.996 132.065 313.319V326.038C132.065 326.361 132.326 326.622 132.649 326.622H145.062C145.385 326.622 145.647 326.361 145.647 326.038V313.319C145.647 312.996 145.385 312.734 145.062 312.734Z" fill="white"/>
<path d="M159.515 312.701L147.515 312.659C147.153 312.658 146.858 312.951 146.856 313.314L146.812 325.888C146.811 326.251 147.104 326.546 147.467 326.547L159.466 326.589C159.829 326.59 160.124 326.298 160.125 325.935L160.169 313.36C160.17 312.997 159.877 312.702 159.515 312.701Z" fill="white"/>
<path d="M196.61 312.687L184.143 312.709C183.79 312.71 183.504 312.996 183.505 313.349L183.527 325.816C183.527 326.168 183.814 326.454 184.167 326.453L196.634 326.431C196.986 326.431 197.272 326.144 197.271 325.792L197.249 313.325C197.249 312.972 196.962 312.687 196.61 312.687Z" fill="white"/>
<path d="M269.85 312.653H257.221C257.007 312.653 256.834 312.826 256.834 313.04V326.208C256.834 326.422 257.007 326.595 257.221 326.595H269.85C270.063 326.595 270.237 326.422 270.237 326.208V313.04C270.237 312.826 270.063 312.653 269.85 312.653Z" fill="white"/>
<path d="M292.961 312.583L280.746 312.561C280.408 312.561 280.134 312.834 280.133 313.172L280.111 325.963C280.11 326.301 280.384 326.575 280.722 326.576L292.937 326.597C293.275 326.598 293.549 326.324 293.549 325.986L293.572 313.196C293.572 312.858 293.299 312.583 292.961 312.583Z" fill="white"/>
<path d="M351.447 312.712L339.034 312.756C338.701 312.757 338.432 313.028 338.433 313.361L338.476 325.774C338.478 326.106 338.748 326.375 339.081 326.374L351.494 326.331C351.827 326.33 352.096 326.059 352.095 325.726L352.051 313.313C352.05 312.98 351.779 312.711 351.447 312.712Z" fill="white"/>
<path d="M366.393 312.74L353.944 312.675C353.577 312.673 353.277 312.969 353.275 313.337L353.21 325.786C353.208 326.153 353.504 326.453 353.872 326.455L366.321 326.52C366.689 326.522 366.988 326.225 366.99 325.858L367.055 313.409C367.057 313.041 366.761 312.742 366.393 312.74Z" fill="white"/>
<path d="M233.291 312.804L220.752 312.826C220.444 312.826 220.195 313.077 220.196 313.385L220.217 325.924C220.218 326.232 220.468 326.481 220.776 326.48L233.315 326.458C233.623 326.458 233.872 326.208 233.872 325.9L233.85 313.361C233.849 313.053 233.599 312.804 233.291 312.804Z" fill="white"/>
<path d="M394.415 312.667L381.966 312.711C381.718 312.712 381.517 312.914 381.518 313.162L381.563 326.151C381.564 326.399 381.766 326.6 382.015 326.599L394.464 326.556C394.712 326.555 394.913 326.353 394.912 326.104L394.866 313.116C394.866 312.867 394.664 312.666 394.415 312.667Z" fill="white"/>
</svg>
